<svg xmlns="http://www.w3.org/2000/svg" width="841.89" height="595.28" viewBox="0 0 841.89 595.28"><path fill-rule="evenodd" clip-rule="evenodd" fill="#A7A9AC" d="M692.95 517.362h-8.383l-5.025 28.17c-.396 2.568-.814 3.968-.814 4.375 0 2.318 1.048 3.486 3.903 3.486 1.28 0 3.1-.533 5.81-1.168l-2.355 13.435c-2.673.77-5.27 1.27-8.234 1.27-10.077 0-14.97-3.323-14.97-11.196 0-1.71.118-3.25.384-4.813l5.794-33.56h-8.137l1.808-11.212h8.27l3.1-17.422h15.365l-3.098 17.422h8.395l-1.81 11.214"/><path fill="#BCBEC0" d="M538.27 28.35h156.49V184.8H538.27z"/><path fill="#A7A9AC" d="M147.13 28.35h156.485V184.8H147.13z"/><path fill="#B1B3B6" d="M342.715 28.35H499.19V184.8H342.715z"/><path fill="#D1D3D4" d="M342.715 223.94H499.19v156.477H342.715z"/><path fill="#C7C8CA" d="M147.13 223.94h156.485v156.477H147.13z"/><path fill="#DCDDDE" d="M538.27 223.94h156.49v156.477H538.27z"/><g fill-rule="evenodd" clip-rule="evenodd" fill="#58595B"><path d="M201.35 524.34l-5.432 31.096c-.235 1.432-.385 2.46-.385 3.636 0 1.798.385 2.973 1.582 4.105v1.563l-16.146-.107v-5.817c-5.05 5.026-9.958 7.23-16.29 7.23-11.218 0-17.55-7.23-17.55-16.907 0-14.47 8.793-19.613 24.78-21.294 10.2-1.18 14.212-.654 14.212-6.6 0-3.088-3.36-5.29-8.897-5.29-5.315 0-8.277 2.04-9.016 6.19h-14.992c1.9-12.158 9.935-17.828 24.884-17.828 15.25 0 23.483 6.59 23.483 16.542 0 1.144 0 2.196-.234 3.48m-38.86 23.387c0 3.336 2.437 5.783 6.83 5.783 6.6 0 12.27-4.125 13.294-10.354l1.305-6.693c-12.148 3.767-21.304 1.678-21.43 11.264zM221.357 564.74H205.86l10.334-58.863h15.495l-10.333 58.863m11.617-65.588h-15.476l2.47-13.803h15.368l-2.362 13.802zM272.475 520.72c-2.073-.528-3.85-.77-5.293-.77-7.614 0-12.266 5.562-14.168 16.91l-5.06 27.88h-15.367l10.47-58.863h14.062l-2.32 11.485c4.768-9.406 10.19-13.175 18.21-13.175.782 0 1.52 0 2.417.13l-2.952 16.404M304.63 566.58c-8.755 0-14.072-4.303-16.904-12.952l-1.81 11.112H271.31l13.955-79.39H300.9l-4.78 27.63c3.87-5.408 8.51-8.662 16.146-8.662 12.76 0 20.63 9.572 20.63 24.81 0 21.54-12.35 37.452-28.265 37.452m1.8-49.854c-8.77 0-15.11 9.535-15.11 22.605 0 8.9 3.646 13.28 10.735 13.28 9.004 0 15.1-10.587 15.1-22.98-.002-8.01-3.84-12.904-10.725-12.904zM351.236 564.74H335.73l10.34-58.712h15.517l-10.35 58.712m11.624-65.416l-15.645-.172 2.48-13.665h15.497l-2.33 13.837zM391.5 517.1h-8.376l-4.92 28.146c-.51 2.702-.747 4.14-.747 4.392 0 2.355.89 3.48 3.862 3.48 1.175 0 3.077-.365 5.666-1.124l-2.33 13.407c-2.56.88-5.283 1.286-8.12 1.286-10.19 0-14.95-3.368-14.95-11.103 0-1.688 0-3.205.238-4.755l10.854-62.23h15.344l-3.1 17.43h8.393L391.5 517.1M448.058 540.615l-39.89-.15v.396c0 8.384 3.99 13.035 11.083 13.035 4.804 0 8.13-1.793 10.467-5.946h16.933c-3.242 11.614-13.818 18.63-28.278 18.63-16.264 0-25.556-10.33-25.44-27.78 0-19.85 12.267-34.328 30.324-34.328 16.26 0 25.824 9.92 25.824 25.814 0 2.96-.517 6.328-1.022 10.33m-24.803-24.053c-6.946 0-11.98 4.682-13.533 13.065h23.625c0-.63.09-1.28.09-1.933 0-7.34-3.45-11.132-10.182-11.132zM489.757 524.22c-.658-5.27-4.126-8.265-9.687-8.265-4.905 0-7.907 2.203-7.907 5.412 0 3.633 3.903 4.79 10.748 6.864 12.15 3.723 18.727 7.615 18.727 18.575 0 11.88-8.917 19.88-23.902 19.88-16.138 0-25.177-8-25.177-21.568v-.27H467.3c.242 6.48 4.247 10.075 10.69 10.075 5.71 0 8.683-2.062 8.683-6.3 0-4.01-3.125-4.93-9.043-6.852-12.525-4.004-19.896-7.766-19.896-19.1 0-11.357 8.514-18.09 23.266-18.09 14.954 0 23.354 7.242 23.458 19.638h-14.7"/></g><path fill-rule="evenodd" clip-rule="evenodd" fill="#A7A9AC" d="M526.426 548.764h-16.78l-2.963 16.137h16.906l2.836-16.136M594.194 527.19l-6.717 37.815h-15.62c.113 0 6.594-37.31 6.594-37.31.365-1.82.365-3.083.365-3.862.14-4.277-2.438-6.605-7.36-6.605-7.473 0-13.802 5.57-15.602 16.02l-5.665 31.758-15.377-.104 10.456-58.752h14.064l-1.678 9.01c6.197-7.483 12.144-10.972 20.006-10.972 10.726 0 17.313 6.603 17.313 16.168.003 1.79-.117 3.983-.776 6.835M655.93 540.72h-39.925v.29c0 8.375 4.014 13.016 10.976 13.016 4.81 0 8.266-1.8 10.48-5.925h16.906c-3.25 11.59-13.815 18.727-28.284 18.727-16.128 0-25.44-10.428-25.44-27.88 0-19.903 12.38-34.364 30.347-34.364 16.397 0 25.824 9.94 25.824 25.83 0 2.973-.385 6.31-.884 10.307m-24.942-23.994c-6.97 0-11.89 4.642-13.57 13.063h23.763c0-.66.12-1.325.12-1.944 0-7.36-3.608-11.12-10.312-11.12z"/></svg>